<?xml version="1.0" standalone="no"?>
<!DOCTYPE svg PUBLIC "-//W3C//DTD SVG 20010904//EN" "http://www.w3.org/TR/2001/REC-SVG-20010904/DTD/svg10.dtd">
<!-- Created using Krita: http://krita.org -->
<svg xmlns="http://www.w3.org/2000/svg" 
    xmlns:xlink="http://www.w3.org/1999/xlink"
    xmlns:krita="http://krita.org/namespaces/svg/krita"
    xmlns:sodipodi="http://sodipodi.sourceforge.net/DTD/sodipodi-0.dtd"
    x="0"
    y="0"
    viewBox="0 0 479.52 399.6">
<defs/>
<path id="shape0" transform="matrix(0.87535598884 0 0 0.97320992221 125.99997514 48.239975289)" fill="#cd6799" d="M136.64 182.867C131.516 185.673 120.729 191.414 109.049 197.862C104.604 200.365 100.008 202.869 95.7127 205.22C95.4113 204.917 95.1099 204.537 94.8085 204.234C71.7518 179.428 29.1044 161.904 30.9128 128.602C31.5909 116.464 35.7351 84.6034 112.817 45.9151C176.261 14.4333 226.744 23.1572 235.485 42.5014C247.993 70.1143 208.435 121.395 142.881 128.83C117.865 131.636 104.755 121.926 101.439 118.285C97.9732 114.492 97.4457 114.265 96.1648 115.023C94.055 116.161 95.4113 119.575 96.1648 121.547C98.1239 126.705 106.186 135.809 119.824 140.284C131.88 144.229 161.191 146.429 196.68 132.623C236.389 117.147 267.433 74.1348 258.315 38.1015C249.198 1.5372 188.919 -10.5245 131.88 9.88175C97.9732 22.0193 61.203 41.1359 34.7555 66.0178C3.3351 95.6031 -1.63792 121.319 0.3965 132.092C7.70533 170.325 60.0727 195.207 81.0197 213.641C79.9648 214.247 78.9853 214.778 78.1565 215.234C67.683 220.468 27.7481 241.481 17.8021 263.708C6.49975 288.893 19.6104 306.948 28.2756 309.375C55.1751 316.885 82.8281 303.382 97.6718 281.08C112.515 258.777 110.707 229.799 103.85 216.523C103.775 216.372 103.7 216.22 103.549 216.068C106.262 214.475 109.049 212.806 111.762 211.213C117.112 208.027 151.351 186.609 136.64 182.867ZM78.5332 272.963C66.6281 286.011 50.0514 290.941 42.8932 286.769C35.2076 282.293 38.2216 263.025 52.8393 249.219C61.7304 240.798 73.1834 232.985 80.7937 228.206C82.5267 227.144 85.0885 225.626 88.1778 223.73C88.7053 223.426 89.0067 223.275 89.0067 223.275L89.0067 223.275C89.6095 222.895 90.2123 222.516 90.815 222.137C96.1648 241.86 91.0411 259.232 78.5332 272.963Z"/><g id="group0" transform="matrix(0.87535598884 0 0 0.97320992221 0 0)" fill="none"/><g id="group1" transform="matrix(0.87535598884 0 0 0.97320992221 0 0)" fill="none"/><g id="group2" transform="matrix(0.87535598884 0 0 0.97320992221 0 0)" fill="none"/><g id="group3" transform="matrix(0.87535598884 0 0 0.97320992221 0 0)" fill="none"/><g id="group4" transform="matrix(0.87535598884 0 0 0.97320992221 0 0)" fill="none"/><g id="group5" transform="matrix(0.87535598884 0 0 0.97320992221 0 0)" fill="none"/>
</svg>
