<?xml version="1.0" standalone="no"?>
<!DOCTYPE svg PUBLIC "-//W3C//DTD SVG 20010904//EN" "http://www.w3.org/TR/2001/REC-SVG-20010904/DTD/svg10.dtd">
<!-- Created using Krita: http://krita.org -->
<svg xmlns="http://www.w3.org/2000/svg" 
    xmlns:xlink="http://www.w3.org/1999/xlink"
    xmlns:krita="http://krita.org/namespaces/svg/krita"
    xmlns:sodipodi="http://sodipodi.sourceforge.net/DTD/sodipodi-0.dtd"
    width="23.04pt"
    height="23.04pt"
    viewBox="0 0 23.04 23.04">
<defs/>
<g id="g4707" transform="matrix(1.9199952 0 0 1.9199952 -354.24 -7.67952)" fill="none">
  <path id="path4534" transform="translate(185, 4)" fill="#00000000" d="M0 0L11 0L11 12L0 12Z"/>
  <path id="path4536" transform="translate(186, 5)" fill="#222" d="M8 8L8 1L1 1L1 8L0 8L0 0L9 0L9 8ZM1 10L0 10L0 9L1 9ZM3 9L2 9L2 10L3 10ZM5 9L4 9L4 10L5 10ZM7 10L6 10L6 9L7 9ZM9 9L8 9L8 10L9 10Z"/>
  <path id="path4538" transform="translate(187, 6)" fill="#00000000" d="M0 7L0 0L7 0L7 7Z"/>
 </g><path id="canvas" transform="matrix(1.44 0 0 1.44 0 0)" opacity="0" fill="#00000000" d="M16 16L0 16L0 0L16 0Z"/>
</svg>
